<?xml version="1.0" standalone="no"?>
<!DOCTYPE svg PUBLIC "-//W3C//DTD SVG 20010904//EN"
 "http://www.w3.org/TR/2001/REC-SVG-20010904/DTD/svg10.dtd">
<svg version="1.0" xmlns="http://www.w3.org/2000/svg"
 width="1912.000000pt" height="1571.000000pt" viewBox="0 0 1912.000000 1571.000000"
 preserveAspectRatio="xMidYMid meet">

<g transform="translate(0.000000,1571.000000) scale(0.100000,-0.100000)"
fill="#000000" stroke="none">
<path d="M0 7855 l0 -7855 9560 0 9560 0 0 7855 0 7855 -9560 0 -9560 0 0
-7855z m18248 5116 c-2 -957 -6 -1742 -9 -1745 -3 -3 -223 -6 -490 -6 l-484
-1 -6 48 c-4 26 -10 64 -13 83 -3 19 -8 51 -11 71 -9 73 -58 286 -90 400 -82
284 -233 591 -384 779 -408 510 -1015 811 -1911 949 -588 91 -1360 100 -2055
25 -967 -104 -1935 -339 -3193 -774 l-62 -22 -124 -206 c-229 -384 -511 -889
-632 -1134 -26 -53 -51 -95 -54 -93 -4 2 -7 -2 -7 -9 0 -24 -45 -87 -58 -82
-8 2 -16 -1 -19 -9 -3 -9 0 -12 10 -8 7 3 14 0 14 -6 0 -6 -6 -11 -12 -11
-189 -4 -2814 2 -2817 6 -3 3 -7 788 -9 1745 l-2 1739 6210 0 6210 0 -2 -1739z
m-4173 -1071 c1104 -38 1677 -150 2059 -400 96 -63 244 -208 229 -224 -4 -3
-1 -6 6 -6 7 0 9 -4 6 -10 -3 -5 -1 -10 5 -10 6 0 9 -4 6 -9 -4 -5 0 -12 6
-14 7 -3 -676 -7 -1519 -9 -1415 -3 -1530 -2 -1522 13 5 9 20 20 34 23 21 5
23 9 13 20 -7 8 -16 12 -20 10 -9 -6 -5 18 7 36 5 8 10 21 10 30 1 8 14 52 28
97 39 121 49 197 45 337 l-3 126 165 0 c91 0 291 -5 445 -10z m-1021 -12 c-15
-26 -307 -462 -318 -476 -6 -7 -19 -22 -28 -33 -10 -10 -18 -23 -18 -29 0 -5
-5 -10 -12 -10 -6 0 -8 -3 -5 -7 4 -3 -5 -17 -19 -30 -14 -12 -22 -23 -19 -23
4 0 -1 -7 -9 -16 -9 -8 -20 -12 -26 -9 -5 3 -18 1 -27 -4 -16 -10 -16 -10 4
-8 12 1 23 -2 25 -8 2 -7 -426 -11 -1266 -13 -1105 -2 -1272 -4 -1286 -17 -9
-8 -24 -15 -33 -15 -15 0 -14 3 3 20 20 20 94 43 105 32 3 -4 3 1 -1 11 -5 13
-2 16 9 11 9 -3 14 -13 10 -22 -4 -14 -3 -14 5 -3 6 8 8 21 4 29 -4 12 -1 14
13 8 11 -4 16 -4 12 0 -7 7 54 34 81 36 6 1 12 5 12 10 0 5 4 6 10 3 5 -3 20
1 33 10 13 8 26 12 29 9 4 -3 18 2 32 12 15 9 29 14 33 10 4 -3 17 1 29 9 51
33 604 189 1005 283 577 136 1017 202 1564 235 28 2 51 4 53 5 2 1 0 -4 -4
-10z m-474 -678 c0 -5 -2 -10 -4 -10 -3 0 -8 5 -11 10 -3 6 -1 10 4 10 6 0 11
-4 11 -10z m-2594 -27 c0 -27 -11 -31 -20 -7 -4 10 -13 14 -24 10 -16 -6 -16
-5 0 7 26 20 44 16 44 -10z m6439 -3 c3 -6 -1 -7 -9 -4 -18 7 -21 14 -7 14 6
0 13 -4 16 -10z m-3078 -15 c0 -8 -4 -12 -9 -9 -5 3 -6 10 -3 15 9 13 12 11
12 -6z m3088 -43 c-3 -3 -11 0 -18 7 -9 10 -8 11 6 5 10 -3 15 -9 12 -12z
m-7925 -229 c0 -4 -7 -27 -16 -50 -14 -36 -15 -48 -4 -73 22 -53 118 -102 159
-81 14 8 20 7 25 -4 3 -9 -1 -15 -10 -15 -18 0 -44 -23 -44 -39 0 -6 -11 -11
-25 -11 -14 0 -25 -6 -25 -13 0 -6 -13 -18 -30 -25 -16 -8 -30 -20 -30 -28 0
-8 -9 -14 -20 -14 -11 0 -52 -32 -93 -72 -89 -88 -119 -113 -130 -110 -5 1 -6
-1 -3 -6 6 -9 -29 -42 -44 -42 -6 0 -10 -9 -10 -20 0 -11 -4 -20 -10 -20 -5 0
-10 -7 -10 -15 0 -8 -7 -15 -15 -15 -8 0 -15 -4 -15 -8 0 -13 -83 -97 -92 -94
-4 1 -8 -6 -8 -15 -1 -22 -23 -53 -39 -53 -6 0 -11 -7 -11 -15 0 -8 -4 -15
-10 -15 -5 0 -10 -7 -10 -15 0 -9 -7 -18 -15 -21 -8 -4 -15 -15 -15 -25 0 -10
-5 -19 -11 -19 -13 0 -33 -20 -42 -42 -3 -10 -11 -18 -17 -18 -5 0 -10 -8 -10
-18 0 -9 -11 -26 -25 -36 -14 -10 -25 -27 -25 -37 0 -11 -4 -19 -10 -19 -5 0
-10 -6 -10 -14 0 -8 -7 -16 -15 -20 -8 -3 -15 -13 -15 -23 0 -10 -11 -27 -25
-37 -14 -10 -25 -27 -25 -37 0 -11 -4 -19 -10 -19 -5 0 -10 -11 -10 -25 0 -16
-6 -25 -15 -25 -8 0 -15 -7 -15 -15 0 -8 -4 -15 -10 -15 -5 0 -10 -11 -10 -25
0 -14 -5 -25 -11 -25 -19 0 -39 -28 -39 -54 0 -16 -6 -26 -15 -26 -9 0 -15 -9
-15 -25 0 -14 -4 -25 -10 -25 -5 0 -10 -11 -10 -25 0 -16 -6 -25 -15 -25 -9 0
-15 -9 -15 -21 0 -22 -22 -49 -39 -49 -6 0 -11 -11 -11 -25 0 -14 -4 -25 -10
-25 -5 0 -10 -11 -10 -25 0 -16 -6 -25 -15 -25 -9 0 -15 -9 -15 -25 0 -14 -4
-25 -10 -25 -5 0 -10 -11 -10 -25 0 -16 -6 -25 -15 -25 -9 0 -15 -9 -15 -25 0
-14 -4 -25 -10 -25 -5 0 -10 -18 -10 -40 0 -29 -4 -40 -15 -40 -8 0 -15 -4
-15 -10 0 -5 -7 -10 -15 -10 -11 0 -15 -11 -15 -40 0 -22 -4 -40 -10 -40 -5 0
-10 -11 -10 -25 0 -16 -6 -25 -15 -25 -11 0 -15 -11 -15 -40 0 -22 -4 -40 -10
-40 -5 0 -10 -11 -10 -25 0 -16 -6 -25 -15 -25 -9 0 -15 -9 -15 -25 0 -14 -4
-25 -10 -25 -5 0 -10 -16 -10 -35 0 -24 -5 -35 -15 -35 -9 0 -15 -9 -15 -25 0
-14 -4 -25 -10 -25 -5 0 -10 -18 -10 -40 0 -29 -4 -40 -15 -40 -9 0 -15 -9
-15 -25 0 -14 -4 -25 -10 -25 -5 0 -10 -16 -10 -35 0 -24 -5 -35 -15 -35 -11
0 -15 -11 -15 -40 0 -22 -4 -40 -10 -40 -5 0 -10 -18 -10 -40 0 -29 -4 -40
-15 -40 -9 0 -15 -9 -15 -25 0 -14 -4 -25 -10 -25 -5 0 -10 -16 -10 -35 0 -24
-5 -35 -15 -35 -11 0 -15 -12 -15 -50 0 -27 -4 -50 -10 -50 -5 0 -10 -18 -10
-40 0 -29 -4 -40 -15 -40 -10 0 -15 -11 -15 -35 0 -19 -4 -35 -10 -35 -5 0
-10 -25 -10 -55 0 -42 -3 -55 -15 -55 -10 0 -15 -11 -15 -35 0 -19 -4 -35 -10
-35 -5 0 -10 -22 -10 -50 0 -38 -4 -50 -15 -50 -11 0 -15 -12 -15 -50 0 -27
-4 -50 -10 -50 -5 0 -10 -22 -10 -50 0 -38 -4 -50 -15 -50 -12 0 -15 -14 -15
-65 0 -37 -4 -65 -10 -65 -5 0 -10 -22 -10 -50 0 -38 -4 -50 -15 -50 -12 0
-15 -14 -15 -65 0 -51 -3 -65 -15 -65 -12 0 -15 -15 -15 -75 0 -43 -4 -75 -10
-75 -6 0 -10 -35 -10 -85 0 -69 -3 -85 -15 -85 -12 0 -15 -18 -15 -105 0 -63
-4 -105 -10 -105 -6 0 -10 -115 -10 -325 0 -210 4 -325 10 -325 6 0 10 -40 10
-100 0 -82 3 -100 15 -100 12 0 15 -14 15 -65 0 -37 4 -65 10 -65 6 0 10 -22
10 -50 0 -38 4 -50 15 -50 11 0 15 -12 15 -50 0 -38 4 -50 15 -50 11 0 15 -12
15 -50 0 -27 5 -50 10 -50 6 0 10 -18 10 -40 0 -29 4 -40 15 -40 10 0 15 -11
15 -35 0 -19 5 -35 10 -35 6 0 10 -11 10 -25 0 -16 6 -25 15 -25 11 0 15 -11
15 -40 0 -22 5 -40 10 -40 6 0 10 -16 10 -35 0 -24 5 -35 15 -35 10 0 15 -10
15 -30 0 -16 5 -30 10 -30 6 0 10 -11 10 -25 0 -16 6 -25 15 -25 10 0 15 -11
15 -35 0 -19 5 -35 10 -35 6 0 10 -7 10 -15 0 -8 7 -15 15 -15 10 0 15 -11 15
-35 0 -19 5 -35 10 -35 6 0 10 -11 10 -25 0 -16 6 -25 15 -25 9 0 15 -9 15
-25 0 -14 5 -25 10 -25 6 0 10 -11 10 -25 0 -16 6 -25 15 -25 9 0 15 -9 15
-25 0 -14 5 -25 10 -25 6 0 10 -7 10 -15 0 -8 7 -15 15 -15 9 0 15 -9 15 -25
0 -14 5 -25 10 -25 6 0 10 -11 10 -25 0 -16 6 -25 15 -25 9 0 15 -9 15 -25 0
-14 5 -25 10 -25 6 0 10 -7 10 -15 0 -8 7 -15 15 -15 9 0 15 -9 15 -25 0 -14
5 -25 10 -25 6 0 10 -11 10 -25 0 -14 5 -25 11 -25 14 0 39 -25 39 -39 0 -6 7
-11 15 -11 9 0 15 -9 15 -25 0 -14 5 -25 11 -25 17 0 39 -27 39 -49 0 -12 6
-21 15 -21 8 0 15 -7 15 -15 0 -8 5 -15 10 -15 6 0 10 -11 10 -25 0 -14 5 -25
11 -25 17 0 39 -27 39 -49 0 -12 6 -21 15 -21 8 0 15 -5 15 -11 0 -14 25 -39
39 -39 6 0 11 -12 11 -26 0 -26 20 -54 39 -54 6 0 11 -7 11 -15 0 -8 5 -15 10
-15 6 0 10 -11 10 -25 0 -14 5 -25 11 -25 14 0 39 -25 39 -39 0 -6 5 -11 11
-11 14 0 39 -25 39 -39 0 -6 7 -11 15 -11 9 0 15 -9 15 -21 0 -22 22 -49 39
-49 6 0 11 -5 11 -11 0 -14 25 -39 39 -39 6 0 11 -5 11 -11 0 -14 25 -39 39
-39 6 0 11 -7 11 -15 0 -8 5 -15 10 -15 6 0 10 -11 10 -25 0 -16 6 -25 15 -25
8 0 15 -4 15 -10 0 -5 7 -10 15 -10 8 0 15 -5 15 -11 0 -14 25 -39 39 -39 6 0
11 -7 11 -15 0 -8 5 -15 10 -15 6 0 10 -7 10 -15 0 -8 5 -15 11 -15 14 0 39
-25 39 -39 0 -6 5 -11 11 -11 14 0 39 -25 39 -39 0 -6 5 -11 11 -11 14 0 39
-25 39 -39 0 -6 5 -11 11 -11 14 0 39 -25 39 -39 0 -6 5 -11 11 -11 14 0 39
-25 39 -39 0 -6 5 -11 11 -11 14 0 39 -25 39 -39 0 -6 5 -11 11 -11 14 0 39
-25 39 -39 0 -6 7 -11 15 -11 8 0 15 -4 15 -10 0 -5 11 -10 25 -10 14 0 25 -5
25 -11 0 -14 25 -39 39 -39 6 0 11 -7 11 -15 0 -8 5 -15 11 -15 14 0 39 -25
39 -39 0 -6 7 -11 15 -11 9 0 15 -9 15 -25 0 -18 -5 -25 -19 -25 -11 0 -21 -3
-23 -8 -5 -12 -272 4 -276 17 -3 8 -9 8 -23 1 -10 -6 -19 -7 -19 -2 0 5 -11 7
-25 4 -14 -2 -31 0 -38 6 -6 5 -50 15 -97 22 -47 6 -90 16 -97 22 -7 5 -17 7
-23 3 -5 -3 -10 -1 -10 4 0 6 -15 11 -34 11 -19 0 -38 4 -41 10 -3 5 -19 10
-36 10 -16 0 -29 4 -29 9 0 6 -9 8 -20 6 -11 -2 -20 0 -20 6 0 5 -13 9 -29 9
-17 0 -33 5 -36 10 -3 6 -19 10 -36 10 -18 0 -29 5 -29 14 0 13 -18 19 -97 33
-19 3 -33 11 -33 19 0 8 -10 14 -25 14 -14 0 -25 5 -25 10 0 6 -11 10 -24 10
-13 0 -26 7 -30 15 -3 9 -18 15 -36 15 -16 0 -30 5 -30 10 0 6 -6 10 -14 10
-8 0 -16 7 -20 15 -3 8 -15 15 -26 15 -11 0 -20 5 -20 10 0 6 -11 10 -25 10
-16 0 -25 6 -25 15 0 9 -9 15 -25 15 -14 0 -25 5 -25 10 0 6 -11 10 -25 10
-16 0 -25 6 -25 15 0 8 -7 15 -15 15 -8 0 -15 5 -15 10 0 6 -11 10 -25 10 -16
0 -25 6 -25 15 0 9 -9 15 -21 15 -22 0 -49 22 -49 39 0 6 -11 11 -25 11 -14 0
-25 5 -25 10 0 6 -7 10 -15 10 -8 0 -15 7 -15 15 0 9 -9 15 -25 15 -14 0 -25
5 -25 11 0 16 -31 38 -52 39 -10 0 -18 7 -18 15 0 8 -5 15 -11 15 -14 0 -39
25 -39 39 0 6 -12 11 -26 11 -26 0 -54 20 -54 39 0 6 -7 11 -15 11 -8 0 -15 5
-15 10 0 6 -11 10 -25 10 -14 0 -25 5 -25 11 0 14 -25 39 -39 39 -6 0 -11 5
-11 11 0 14 -25 39 -39 39 -6 0 -11 7 -11 15 0 9 -9 15 -21 15 -21 0 -49 21
-49 38 0 5 -9 12 -21 15 -11 3 -23 15 -26 26 -3 12 -10 21 -15 21 -13 0 -38
26 -38 39 0 6 -5 11 -11 11 -14 0 -39 25 -39 39 0 6 -5 11 -11 11 -14 0 -39
25 -39 39 0 6 -7 11 -15 11 -8 0 -15 5 -15 11 0 14 -25 39 -39 39 -6 0 -11 7
-11 15 0 8 -5 15 -11 15 -14 0 -39 25 -39 39 0 6 -5 11 -11 11 -14 0 -39 25
-39 39 0 6 -5 11 -11 11 -14 0 -39 25 -39 39 0 6 -5 11 -11 11 -14 0 -39 25
-39 39 0 6 -5 11 -11 11 -14 0 -39 25 -39 39 0 6 -7 11 -15 11 -9 0 -15 9 -15
21 0 21 -22 49 -38 49 -6 0 -13 8 -16 17 -6 15 -8 15 -16 3 -5 -8 -14 -16 -20
-16 -5 -1 -14 -2 -20 -3 -5 0 -10 -12 -10 -26 0 -16 -6 -25 -15 -25 -9 0 -15
-9 -15 -25 0 -14 -4 -25 -10 -25 -5 0 -10 -11 -10 -25 0 -16 -6 -25 -15 -25
-9 0 -15 -9 -15 -25 0 -14 -4 -25 -10 -25 -5 0 -10 -11 -10 -25 0 -16 -6 -25
-15 -25 -9 0 -15 -9 -15 -25 0 -14 -4 -25 -10 -25 -5 0 -10 -11 -10 -25 0 -16
-6 -25 -15 -25 -9 0 -15 -9 -15 -25 0 -14 -4 -25 -10 -25 -5 0 -10 -11 -10
-25 0 -16 -6 -25 -15 -25 -8 0 -15 -7 -15 -15 0 -8 -7 -15 -15 -15 -9 0 -15
-9 -15 -25 0 -14 -4 -25 -10 -25 -5 0 -10 -11 -10 -25 0 -16 -6 -25 -15 -25
-9 0 -15 -9 -15 -25 0 -14 -4 -25 -10 -25 -5 0 -10 -11 -10 -25 0 -16 -6 -25
-15 -25 -9 0 -15 -9 -15 -25 0 -14 -4 -25 -10 -25 -5 0 -10 -11 -10 -25 0 -16
-6 -25 -15 -25 -9 0 -15 -9 -15 -25 0 -14 -4 -25 -10 -25 -5 0 -10 -11 -10
-25 0 -16 -6 -25 -15 -25 -9 0 -15 -9 -15 -25 0 -14 -4 -25 -10 -25 -5 0 -10
-11 -10 -25 0 -16 -6 -25 -15 -25 -9 0 -15 -9 -15 -25 0 -14 -4 -25 -10 -25
-5 0 -10 -11 -10 -25 0 -16 -6 -25 -15 -25 -9 0 -15 -9 -15 -25 0 -14 -4 -25
-10 -25 -5 0 -10 -11 -10 -25 0 -16 -6 -25 -15 -25 -8 0 -15 -7 -15 -15 0 -8
-4 -15 -10 -15 -5 0 -10 -11 -10 -25 0 -16 -6 -25 -15 -25 -9 0 -15 -9 -15
-25 0 -14 -4 -25 -10 -25 -5 0 -10 -11 -10 -25 0 -16 -6 -25 -15 -25 -9 0 -15
-9 -15 -25 0 -14 -4 -25 -10 -25 -5 0 -10 -11 -10 -25 0 -16 -6 -25 -15 -25
-9 0 -15 -9 -15 -25 0 -14 -4 -25 -10 -25 -5 0 -10 -11 -10 -25 0 -16 -6 -25
-15 -25 -9 0 -15 -9 -15 -25 0 -16 -6 -25 -15 -25 -9 0 -15 -9 -15 -25 0 -14
-4 -25 -10 -25 -5 0 -10 -11 -10 -25 0 -16 -6 -25 -15 -25 -9 0 -15 -9 -15
-25 0 -14 -4 -25 -10 -25 -5 0 -10 -11 -10 -25 0 -16 -6 -25 -15 -25 -9 0 -15
-9 -15 -25 0 -14 -4 -25 -10 -25 -5 0 -10 -11 -10 -25 0 -14 -6 -25 -12 -25
-16 0 -38 -46 -38 -77 0 -13 -6 -23 -12 -23 -13 0 -38 -44 -38 -67 0 -7 -7
-13 -15 -13 -9 0 -15 -9 -15 -25 0 -14 -4 -25 -10 -25 -5 0 -10 -11 -10 -25 0
-16 -6 -25 -15 -25 -9 0 -15 -9 -15 -25 0 -14 -4 -25 -10 -25 -5 0 -10 -11
-10 -25 0 -16 -6 -25 -15 -25 -9 0 -15 -9 -15 -25 0 -14 -4 -25 -10 -25 -5 0
-10 -11 -10 -25 0 -16 -6 -25 -15 -25 -9 0 -15 -9 -15 -25 0 -14 -4 -25 -10
-25 -5 0 -10 -11 -10 -25 0 -16 -6 -25 -15 -25 -9 0 -15 -9 -15 -25 0 -14 -4
-25 -10 -25 -5 0 -10 -11 -10 -25 0 -14 -6 -25 -12 -25 -13 0 -38 -44 -38 -67
0 -7 -7 -13 -15 -13 -9 0 -15 -9 -15 -25 0 -14 -4 -25 -10 -25 -5 0 -10 -11
-10 -25 0 -16 -6 -25 -15 -25 -9 0 -15 -9 -15 -25 0 -16 -6 -25 -15 -25 -9 0
-15 -9 -15 -25 0 -14 -4 -25 -10 -25 -5 0 -10 -11 -10 -25 0 -16 -6 -25 -15
-25 -9 0 -15 -9 -15 -25 0 -14 -4 -25 -10 -25 -5 0 -10 -11 -10 -25 0 -16 -6
-25 -15 -25 -9 0 -15 -9 -15 -25 0 -14 -4 -25 -10 -25 -5 0 -10 -11 -10 -25 0
-16 -6 -25 -15 -25 -9 0 -15 -9 -15 -25 0 -14 -4 -25 -10 -25 -5 0 -10 -11
-10 -25 0 -16 -6 -25 -15 -25 -9 0 -15 -9 -15 -25 0 -14 -4 -25 -10 -25 -5 0
-10 -11 -10 -25 0 -16 -6 -25 -15 -25 -8 0 -15 -6 -15 -13 0 -23 -25 -67 -37
-67 -7 0 -13 -11 -13 -25 0 -14 -4 -25 -10 -25 -5 0 -10 -11 -10 -25 0 -16 -6
-25 -15 -25 -9 0 -15 -9 -15 -25 0 -14 -4 -25 -10 -25 -5 0 -10 -11 -10 -25 0
-16 -6 -25 -15 -25 -8 0 -15 -7 -15 -15 0 -8 -4 -15 -10 -15 -5 0 -10 7 -10
15 0 8 -7 15 -15 15 -19 0 -19 16 0 24 12 4 15 24 15 90 0 47 4 88 10 91 5 3
10 32 10 65 0 42 4 59 15 64 11 4 15 22 15 76 0 40 4 70 10 70 6 0 10 32 10
75 0 60 3 75 15 75 12 0 15 15 15 74 0 41 5 78 10 81 6 3 10 37 10 74 0 49 4
72 15 81 10 8 15 31 15 66 0 29 4 56 10 59 6 3 10 37 10 75 0 49 4 69 14 73
14 6 20 41 32 205 4 50 10 75 20 79 10 4 14 24 14 79 0 43 4 74 10 74 6 0 10
32 10 75 0 58 3 75 14 75 15 0 17 13 32 193 4 53 11 80 20 84 10 4 14 25 14
77 0 40 4 76 9 82 5 5 11 37 13 72 2 43 6 61 15 58 8 -3 13 18 17 70 3 41 9
108 12 149 4 55 9 75 20 75 11 0 14 16 14 69 0 46 5 74 14 84 14 14 22 68 32
212 4 54 10 83 20 88 10 5 14 26 14 67 0 32 5 62 10 65 6 3 10 40 10 81 0 59
3 74 15 74 12 0 15 14 15 65 0 37 4 65 10 65 6 0 10 32 10 75 0 60 3 75 15 75
12 0 15 15 15 75 0 43 4 75 10 75 6 0 10 28 10 65 0 51 3 65 15 65 12 0 15 14
15 69 0 39 5 73 10 76 6 3 10 40 10 81 0 59 3 74 15 74 12 0 15 15 15 75 0 43
4 75 10 75 6 0 10 28 10 65 0 51 3 65 15 65 12 0 15 15 15 75 0 43 4 75 10 75
6 0 10 32 10 75 0 60 3 75 15 75 12 0 15 14 15 65 0 37 4 65 10 65 6 0 10 32
10 75 0 60 3 75 15 75 12 0 15 15 15 75 0 43 4 75 10 75 6 0 10 27 10 60 0 47
3 60 15 60 12 0 15 15 15 75 0 43 4 75 10 75 6 0 10 33 10 80 0 64 3 80 15 80
12 0 15 15 15 75 0 43 4 75 10 75 6 0 10 27 10 60 0 47 3 60 15 60 12 0 15 15
15 75 0 43 4 75 10 75 6 0 10 33 10 80 0 64 3 80 15 80 12 0 15 15 15 75 0 60
3 75 15 75 12 0 15 13 15 60 0 33 4 60 10 60 6 0 10 32 10 75 0 60 3 75 15 75
12 0 15 16 15 80 0 47 4 80 10 80 6 0 10 27 10 60 0 47 3 60 15 60 12 0 15 15
15 75 0 43 4 75 10 75 6 0 10 32 10 75 0 60 3 75 15 75 11 0 15 11 15 40 l0
40 -40 0 c-22 0 -40 -4 -40 -10 0 -5 -11 -10 -25 -10 -16 0 -25 -6 -25 -15 0
-11 -11 -15 -40 -15 -29 0 -40 -4 -40 -15 0 -9 -9 -15 -25 -15 -14 0 -25 -4
-25 -10 0 -5 -11 -10 -25 -10 -16 0 -25 -6 -25 -15 0 -10 -11 -15 -35 -15 -19
0 -35 -4 -35 -10 0 -5 -11 -10 -25 -10 -16 0 -25 -6 -25 -15 0 -9 -9 -15 -25
-15 -14 0 -25 -4 -25 -10 0 -5 -18 -10 -40 -10 -29 0 -40 -4 -40 -15 0 -9 -9
-15 -25 -15 -14 0 -25 -4 -25 -10 0 -5 -11 -10 -25 -10 -16 0 -25 -6 -25 -15
0 -9 -9 -15 -25 -15 -14 0 -25 -4 -25 -10 0 -5 -16 -10 -35 -10 -24 0 -35 -5
-35 -15 0 -10 -10 -15 -30 -15 -16 0 -30 -4 -30 -10 0 -5 -16 -10 -35 -10 -24
0 -35 -5 -35 -15 0 -9 -9 -15 -25 -15 -14 0 -25 -4 -25 -10 0 -5 -11 -10 -25
-10 -16 0 -25 -6 -25 -15 0 -11 -11 -15 -40 -15 -22 0 -40 -4 -40 -10 0 -5
-11 -10 -25 -10 -16 0 -25 -6 -25 -15 0 -9 -9 -15 -25 -15 -14 0 -25 -4 -25
-10 0 -5 -16 -10 -35 -10 -24 0 -35 -5 -35 -15 0 -9 -9 -15 -25 -15 -14 0 -25
-4 -25 -10 0 -5 -11 -10 -25 -10 -16 0 -25 -6 -25 -15 0 -11 -11 -15 -40 -15
-22 0 -40 -4 -40 -10 0 -5 -11 -10 -25 -10 -16 0 -25 -6 -25 -15 0 -9 -9 -15
-25 -15 -16 0 -25 -6 -25 -15 0 -11 -11 -15 -40 -15 -22 0 -40 -4 -40 -10 0
-5 -11 -10 -25 -10 -16 0 -25 -6 -25 -15 0 -9 -9 -15 -25 -15 -14 0 -25 -4
-25 -10 0 -5 -11 -10 -25 -10 -16 0 -25 -6 -25 -15 0 -10 -11 -15 -35 -15 -19
0 -35 -4 -35 -10 0 -5 -11 -10 -25 -10 -16 0 -25 -6 -25 -15 0 -11 -11 -15
-40 -15 -22 0 -40 -4 -40 -10 0 -5 -11 -10 -25 -10 -16 0 -25 -6 -25 -15 0 -9
-9 -15 -25 -15 -14 0 -25 -4 -25 -10 0 -5 -11 -10 -25 -10 -16 0 -25 -6 -25
-15 0 -11 -11 -15 -40 -15 -22 0 -40 -4 -40 -10 0 -5 -11 -10 -25 -10 -16 0
-25 -6 -25 -15 0 -10 -11 -15 -35 -15 -19 0 -35 -4 -35 -10 0 -5 -11 -10 -25
-10 -16 0 -25 -6 -25 -15 0 -9 -9 -15 -25 -15 -14 0 -25 -4 -25 -10 0 -5 -18
-10 -40 -10 -29 0 -40 -4 -40 -15 0 -9 -9 -15 -25 -15 -14 0 -25 -4 -25 -10 0
-5 -11 -10 -25 -10 -16 0 -25 -6 -25 -15 0 -11 -11 -15 -40 -15 -22 0 -40 -4
-40 -10 0 -5 -11 -10 -25 -10 -16 0 -25 -6 -25 -15 0 -9 -9 -15 -25 -15 -14 0
-25 -4 -25 -10 0 -5 -16 -10 -35 -10 -24 0 -35 -5 -35 -15 0 -9 -9 -15 -25
-15 -16 0 -25 -6 -25 -15 0 -9 -9 -15 -25 -15 -14 0 -25 -4 -25 -10 0 -5 -18
-10 -40 -10 -29 0 -40 -4 -40 -15 0 -9 -9 -15 -25 -15 -14 0 -25 -4 -25 -10 0
-5 -11 -10 -25 -10 -16 0 -25 -6 -25 -15 0 -10 -11 -15 -35 -15 -19 0 -35 -4
-35 -10 0 -5 -11 -10 -25 -10 -16 0 -25 -6 -25 -15 0 -10 -10 -15 -30 -15 -16
0 -30 -4 -30 -10 0 -5 -16 -10 -35 -10 -24 0 -35 -5 -35 -15 0 -9 -9 -15 -25
-15 -14 0 -25 -4 -25 -10 0 -5 -11 -10 -25 -10 -16 0 -25 -6 -25 -15 0 -9 -9
-15 -25 -15 -14 0 -25 -4 -25 -10 0 -5 -18 -10 -40 -10 -29 0 -40 -4 -40 -15
0 -9 -9 -15 -25 -15 -14 0 -25 -4 -25 -10 0 -5 -16 -10 -35 -10 -24 0 -35 -5
-35 -15 0 -9 -9 -15 -25 -15 -14 0 -25 -4 -25 -10 0 -5 -11 -10 -25 -10 -16 0
-25 -6 -25 -15 0 -10 -10 -15 -30 -15 -16 0 -30 -4 -30 -10 0 -5 -16 -10 -35
-10 -24 0 -35 -5 -35 -15 0 -9 -9 -15 -25 -15 -14 0 -25 -4 -25 -10 0 -5 -11
-10 -25 -10 -16 0 -25 -6 -25 -15 0 -11 -11 -15 -40 -15 -22 0 -40 -4 -40 -10
0 -5 -11 -10 -25 -10 -16 0 -25 -6 -25 -15 0 -10 -11 -15 -35 -15 -24 0 -35
-5 -35 -15 0 -9 -9 -15 -25 -15 -14 0 -25 -4 -25 -10 0 -5 -11 -10 -25 -10
-16 0 -25 -6 -25 -15 0 -11 -11 -15 -40 -15 -22 0 -40 -4 -40 -10 0 -5 -11
-10 -25 -10 -16 0 -25 -6 -25 -15 0 -9 -9 -15 -25 -15 -14 0 -25 -4 -25 -10 0
-5 -18 -10 -40 -10 -29 0 -40 -4 -40 -15 0 -9 -9 -15 -25 -15 -14 0 -25 -4
-25 -10 0 -5 -11 -10 -25 -10 -16 0 -25 -6 -25 -15 0 -9 -9 -15 -25 -15 -14 0
-25 -4 -25 -10 0 -5 -16 -10 -35 -10 -24 0 -35 -5 -35 -15 0 -11 -12 -15 -44
-15 -41 0 -43 1 -38 25 3 18 11 25 28 25 15 0 24 6 24 15 0 8 5 15 11 15 14 0
39 25 39 39 0 6 11 11 25 11 14 0 25 5 25 10 0 6 7 10 15 10 8 0 15 7 15 15 0
9 9 15 21 15 22 0 49 22 49 39 0 6 7 11 15 11 8 0 15 5 15 10 0 6 11 10 25 10
16 0 25 6 25 15 0 8 5 15 10 15 6 0 10 7 10 15 0 9 9 15 25 15 14 0 25 5 25
10 0 6 7 10 15 10 8 0 15 7 15 15 0 8 7 15 15 15 8 0 15 5 15 10 0 6 11 10 25
10 14 0 25 5 25 11 0 17 27 39 49 39 12 0 21 6 21 15 0 8 5 15 11 15 14 0 39
25 39 39 0 6 11 11 25 11 14 0 25 5 25 10 0 6 7 10 15 10 8 0 15 5 15 11 0 16
26 39 45 39 8 0 18 7 21 15 4 8 12 15 20 15 8 0 14 5 14 10 0 6 8 10 19 10 10
0 27 11 37 25 10 14 24 25 31 25 7 0 13 7 13 15 0 8 8 15 18 15 21 1 52 23 52
39 0 6 7 11 15 11 8 0 15 5 15 10 0 6 11 10 25 10 16 0 25 6 25 15 0 8 7 15
15 15 8 0 15 5 15 10 0 6 7 10 15 10 17 0 55 35 55 50 0 6 7 10 15 10 8 0 15
5 15 10 0 6 8 10 19 10 10 0 27 11 37 25 10 14 24 25 31 25 7 0 13 6 13 13 0
8 19 20 42 27 24 8 53 24 64 37 12 13 26 23 33 23 6 0 11 7 11 15 0 8 8 15 18
15 21 1 52 23 52 39 0 6 7 11 15 11 8 0 15 5 15 10 0 6 8 10 19 10 10 0 27 11
37 25 10 14 27 25 36 25 10 0 18 5 18 11 0 5 4 8 8 5 5 -3 15 4 22 15 8 10 20
19 27 19 7 0 13 6 13 13 0 7 16 19 35 26 19 7 35 19 35 27 0 8 7 14 15 14 8 0
15 5 15 10 0 6 7 10 15 10 8 0 25 11 39 25 14 14 30 25 36 25 5 0 10 7 10 15
0 8 8 15 19 15 10 0 27 11 37 25 10 14 27 25 37 25 10 0 16 4 12 9 -3 5 5 13
17 17 26 8 48 28 48 43 0 6 6 11 13 11 21 0 67 24 67 35 0 6 16 17 35 24 19 7
35 19 35 27 0 8 7 14 15 14 8 0 15 5 15 10 0 6 9 10 21 10 11 0 17 4 14 10 -3
5 5 12 18 15 13 4 31 17 41 31 11 13 27 24 37 24 11 0 19 5 19 10 0 6 7 10 15
10 9 0 18 7 21 15 4 8 13 15 21 15 16 0 43 24 43 38 0 5 18 15 40 22 22 7 40
17 40 22 0 12 26 38 38 38 6 0 12 7 16 15 3 8 13 15 21 15 19 0 45 23 45 39 0
6 7 11 15 11 8 0 15 7 15 15 0 9 9 15 21 15 22 0 49 22 49 40 0 7 7 10 15 6 8
-3 21 1 29 9 8 8 19 15 25 15 6 0 11 6 11 13 0 12 44 37 67 37 7 0 13 5 13 11
0 6 6 17 14 25 8 8 19 14 25 14 6 0 11 4 11 9 0 5 10 13 22 17 26 8 48 28 48
43 0 6 11 11 25 11 14 0 25 5 25 10 0 6 7 10 15 10 8 0 15 5 15 11 0 16 31 38
53 39 9 0 17 7 17 15 0 8 7 15 15 15 8 0 15 5 15 10 0 6 11 10 25 10 14 0 25
5 25 11 0 14 25 39 39 39 6 0 11 7 11 15 0 9 9 15 21 15 22 0 49 22 49 39 0 6
12 11 26 11 26 0 54 20 54 39 0 6 7 11 15 11 8 0 15 7 15 15 0 9 9 15 21 15
22 0 49 22 49 39 0 6 7 11 15 11 8 0 15 5 15 10 0 6 11 10 25 10 14 0 25 5 25
11 0 17 27 39 49 39 12 0 21 6 21 15 0 8 5 15 11 15 14 0 39 25 39 39 0 6 11
11 25 11 14 0 25 5 25 10 0 6 7 10 15 10 8 0 15 7 15 15 0 9 9 15 21 15 22 0
49 22 49 39 0 6 7 11 15 11 8 0 15 5 15 10 0 6 11 10 25 10 14 0 25 5 25 11 0
19 28 39 54 39 14 0 26 5 26 11 0 14 25 39 39 39 6 0 11 7 11 15 0 9 9 15 21
15 22 0 49 22 49 39 0 6 11 11 25 11 14 0 25 5 25 10 0 6 7 10 15 10 8 0 15 5
15 11 0 17 27 39 49 39 12 0 21 6 21 15 0 8 7 15 15 15 8 0 15 5 15 11 0 17
27 39 49 39 12 0 21 6 21 15 0 8 5 15 11 15 14 0 39 25 39 39 0 6 9 11 20 11
36 0 60 31 60 77 0 24 3 43 8 44 4 0 14 2 22 4 8 1 26 4 40 6 14 2 28 9 32 14
4 6 88 11 205 13 204 2 283 9 283 23 0 4 9 7 20 6 11 -1 20 -5 20 -9 0 -4 36
-8 80 -8 47 0 80 4 80 10 0 6 30 10 70 10 40 0 70 -4 70 -10 0 -14 43 -6 48 8
2 7 12 12 23 12 10 0 19 5 19 10 0 6 71 10 194 10 163 0 195 2 200 15 4 11 21
15 61 15 55 0 85 14 85 39 0 6 5 11 11 11 17 0 39 27 39 49 0 12 6 21 15 21 8
0 15 5 15 11 0 14 25 39 39 39 6 0 11 7 11 15 0 8 5 15 10 15 6 0 10 7 10 15
0 8 5 15 11 15 6 0 17 6 25 14 8 8 14 19 14 25 0 6 7 11 15 11 9 0 15 9 15 21
0 22 22 49 39 49 6 0 11 5 11 11 0 6 6 17 14 25 8 8 19 14 25 14 6 0 11 7 11
15 0 8 5 15 11 15 6 0 17 6 25 14 8 8 14 19 14 25 0 6 5 11 11 11 6 0 17 6 25
14 8 8 14 19 14 25 0 6 5 11 11 11 14 0 39 25 39 39 0 6 5 11 11 11 6 0 17 6
25 14 8 8 14 19 14 25 0 6 5 11 11 11 6 0 17 6 25 14 8 8 14 19 14 25 0 6 5
11 11 11 14 0 39 25 39 39 0 6 5 11 11 11 14 0 39 25 39 39 0 6 7 11 15 11 8
0 15 5 15 11 0 17 27 39 49 39 12 0 21 6 21 15 0 8 5 15 11 15 14 0 39 25 39
39 0 6 5 11 11 11 14 0 39 25 39 39 0 6 12 11 26 11 14 0 23 4 19 10 -3 6 3
10 14 10 12 0 21 7 21 15 0 8 7 15 15 15 8 0 15 4 15 9 0 5 11 12 25 15 14 4
23 11 20 16 -3 6 1 10 9 10 9 0 16 5 16 10 0 6 7 10 15 10 8 0 15 6 15 14 0 8
16 20 35 26 19 6 35 18 35 26 0 8 5 14 11 14 14 0 39 25 39 39 0 6 7 11 15 11
19 0 58 21 68 38 4 6 15 12 24 12 9 0 26 11 39 25 13 14 30 25 39 25 8 0 15 5
15 10 0 6 11 10 25 10 16 0 25 6 25 15 0 9 9 15 25 15 16 0 25 6 25 15 0 8 7
15 15 15 8 0 15 5 15 10 0 6 11 10 25 10 16 0 25 6 25 15 0 9 9 15 25 15 14 0
25 5 25 10 0 6 11 10 25 10 16 0 25 6 25 15 0 11 11 15 40 15 22 0 40 5 40 10
0 6 11 10 25 10 16 0 25 6 25 15 0 13 18 20 43 16 4 0 7 4 7 9 0 6 12 10 26
10 14 0 32 7 40 15 13 12 65 21 97 16 4 0 7 4 7 9 0 6 11 10 25 10 14 0 25 5
25 11 0 5 5 7 10 4 6 -3 10 -1 10 4 0 6 7 11 15 11 8 0 15 -3 15 -7z m210
-183 c0 -5 -5 -10 -11 -10 -5 0 -7 5 -4 10 3 6 8 10 11 10 2 0 4 -4 4 -10z
m-2784 -255 c5 -11 22 -15 64 -15 33 0 62 -4 65 -10 3 -5 17 -10 31 -10 13 0
24 -6 24 -12 0 -13 44 -38 67 -38 7 0 13 -7 13 -16 0 -8 5 -12 10 -9 6 3 10
-1 10 -9 0 -9 7 -16 15 -16 8 0 15 -5 15 -11 0 -14 25 -39 39 -39 6 0 11 -5
11 -11 0 -14 25 -39 39 -39 6 0 11 -15 11 -34 0 -19 5 -38 10 -41 6 -3 10 -46
10 -95 0 -49 -4 -92 -10 -95 -5 -3 -10 -19 -10 -36 0 -16 -5 -29 -12 -29 -13
0 -38 -44 -38 -67 0 -7 -5 -13 -11 -13 -6 0 -17 -6 -25 -14 -8 -8 -14 -19 -14
-25 0 -6 -7 -11 -15 -11 -8 0 -15 -4 -15 -10 0 -5 -7 -10 -15 -10 -8 0 -24 -9
-35 -20 -12 -12 -25 -18 -30 -15 -5 3 -11 1 -15 -5 -3 -5 -15 -10 -26 -10 -11
0 -22 -7 -25 -15 -4 -9 -19 -15 -39 -15 -19 0 -37 -4 -40 -10 -4 -6 -68 -10
-160 -10 -92 0 -156 4 -160 10 -3 6 -22 10 -41 10 -22 0 -37 6 -40 15 -4 9
-19 15 -40 15 -19 0 -34 5 -34 10 0 6 -13 10 -30 10 -16 0 -30 5 -30 11 0 14
-25 39 -39 39 -6 0 -11 5 -11 11 0 6 -6 17 -14 25 -8 8 -19 14 -25 14 -6 0
-11 5 -11 11 0 6 -6 17 -14 25 -8 8 -19 14 -25 14 -6 0 -11 9 -11 19 0 11 -4
23 -10 26 -5 3 -10 22 -10 41 0 22 -6 37 -15 40 -11 5 -15 22 -15 70 0 50 3
64 15 64 9 0 15 9 15 25 0 14 5 25 10 25 6 0 10 11 10 25 0 16 6 25 15 25 8 0
15 4 15 9 0 5 13 22 29 37 17 15 27 32 24 37 -3 6 -1 7 5 3 7 -4 12 -2 12 4 0
6 11 16 25 22 14 6 25 17 25 25 0 8 12 13 30 13 17 0 30 5 30 10 0 6 11 10 25
10 16 0 25 6 25 15 0 9 9 15 25 15 14 0 25 5 25 10 0 6 27 10 60 10 47 0 60 3
60 15 0 12 17 15 95 15 76 0 97 -3 101 -15z"/>
<path d="M16333 11261 c0 -11 5 -18 9 -15 4 3 5 11 1 19 -7 21 -12 19 -10 -4z"/>
<path d="M13420 11251 c0 -6 4 -13 10 -16 6 -3 7 1 4 9 -7 18 -14 21 -14 7z"/>
<path d="M10214 11275 c-10 -8 -15 -15 -10 -15 5 0 2 -8 -5 -17 -13 -16 -12
-17 3 -4 10 7 15 17 12 22 -3 5 0 9 7 9 6 0 9 -8 6 -20 -3 -11 -1 -18 4 -15 6
5 10 55 4 55 -1 0 -10 -7 -21 -15z"/>
</g>
</svg>
